<svg xmlns="http://www.w3.org/2000/svg" width="146" height="105" viewBox="0 0 146 105" fill="none">
<g opacity="0.1">
<g clip-path="url(#clip0)">
<path d="M69.6365 7.90274C68.6759 3.93484 69.0938 2.01831 71.188 0.775933C72.9988 -0.302718 74.8673 -0.278641 76.582 1.00226C78.561 2.4854 78.8444 4.43564 77.6436 7.84977C82.711 8.38428 87.764 8.84656 92.7979 9.46775C105.93 11.0809 118.779 13.9894 131.286 18.3281C135.456 19.7727 137.8 23.1242 139.745 26.7791C142.992 32.8755 144.601 39.5014 145.37 46.3104C146.719 58.2527 146.037 70.0263 141.786 81.3955C141.003 83.4854 140 85.5127 138.895 87.4533C136.805 91.1178 133.842 93.5014 129.716 95.0183C117.4 99.5496 104.777 102.593 91.7603 103.989C75.6838 105.713 59.6553 105.184 43.6701 102.786C32.1711 101.062 20.9026 98.3698 9.94635 94.5175C8.07308 93.8578 6.25265 91.8401 5.3064 89.991C3.8366 87.1114 2.75587 83.8995 2.18428 80.7117C-0.779333 64.2093 -0.788939 47.6876 2.5061 31.2093C2.74146 30.0344 3.08249 28.8738 3.42352 27.723C4.95576 22.4886 7.54953 18.7807 13.3279 16.8738C30.269 11.2783 47.5223 8.05202 65.352 7.90755C66.7113 7.89311 68.0658 7.90274 69.6365 7.90274ZM11.0511 89.4758C11.7668 87.4966 12.6314 85.7727 13.006 83.9477C13.8898 79.6331 14.8025 75.2992 15.2299 70.9268C16.5845 57.0392 16.3923 43.1997 13.0397 29.5576C12.5833 27.7037 11.7476 25.9413 10.9839 23.8514C3.78377 35.3939 4.17283 79.9701 11.0511 89.4758ZM60.5199 33.3281C60.8946 35.8225 61.3221 37.6283 61.3941 39.4485C61.471 41.4132 62.2491 41.9236 64.1752 41.9188C75.7607 41.8899 87.3461 42.0055 98.9364 42.0681C101.055 42.0777 103.173 42.0681 105.603 42.0681C105.147 39.7952 104.676 37.7824 104.364 35.7406C104.143 34.3201 103.384 33.9734 102.068 33.9397C96.3186 33.7807 90.5739 33.4244 84.8244 33.3474C76.8462 33.2462 68.868 33.3281 60.5199 33.3281ZM106.593 62.0087C91.6643 62.0087 77.1584 62.0087 62.5997 62.0087C62.398 64.8546 62.2155 67.373 62.0329 69.9204C76.7309 69.9204 91.1599 69.9204 105.819 69.9204C106.103 67.0552 106.348 64.5416 106.593 62.0087ZM62.8015 52.7631C62.8015 55.1226 62.8015 57.4774 62.8015 59.8128C77.5043 59.8128 92.0437 59.8128 106.54 59.8128C106.54 57.2896 106.54 55.1612 106.54 52.7631C91.9429 52.7631 77.5091 52.7631 62.8015 52.7631ZM60.7072 79.2719C63.1809 79.3827 65.4817 79.5801 67.7824 79.5657C79.2959 79.5079 90.8141 79.4116 102.328 79.2575C102.957 79.2478 103.985 78.7278 104.129 78.2414C104.729 76.1997 105.061 74.0761 105.488 71.9958C104.96 71.8225 104.734 71.6828 104.513 71.6828C90.6796 71.7695 76.8414 71.8562 63.008 72.0199C62.5229 72.0247 61.7255 72.6941 61.6247 73.1708C61.2116 75.1114 61.0147 77.0953 60.7072 79.2719ZM62.5997 50.7262C77.3602 50.7262 91.8324 50.7262 106.502 50.7262C106.3 48.4533 106.117 46.4019 105.901 43.9894C91.2128 43.9894 76.7213 43.9894 62.0281 43.9894C62.2155 46.1852 62.398 48.3136 62.5997 50.7262ZM103.432 81.4148C88.9216 81.4148 74.6655 81.4148 60.2029 81.4148C59.7226 83.4661 59.2278 85.5849 58.6899 87.8722C61.0915 87.9974 63.1617 88.2093 65.2271 88.1949C76.5676 88.113 87.9081 87.9926 99.2486 87.8C100.027 87.7856 101.165 87.251 101.487 86.625C102.318 85.0215 102.784 83.2254 103.432 81.4148ZM55.1547 15.9108C55.9136 17.8755 56.6773 19.4645 57.1288 21.1355C57.4987 22.5079 58.1615 22.8161 59.5112 22.792C68.7863 22.6379 78.0662 22.5657 87.3413 22.4934C91.3809 22.4597 95.4156 22.4886 99.4023 22.4886C98.4225 18.487 96.8758 17.052 92.6537 16.5946C80.3046 15.2462 67.9314 15.0729 55.1547 15.9108ZM103.259 31.5849C102.813 30.2944 102.174 28.8209 101.794 27.2848C101.338 25.426 100.334 24.7663 98.4129 24.7374C89.6133 24.5978 80.8185 24.2173 72.0237 24.1114C67.5663 24.0584 63.1089 24.4003 58.3873 24.5737C58.8484 26.471 59.3623 28.0649 59.5929 29.7021C59.8282 31.4019 60.5728 31.869 62.2779 31.8257C69.0745 31.6523 75.876 31.6234 82.6774 31.5946C89.4644 31.5608 96.2562 31.5849 103.259 31.5849ZM48.5742 101.206C48.7039 101.447 48.8336 101.692 48.9681 101.933C49.7174 101.476 50.7837 101.201 51.1536 100.532C52.657 97.8112 54.2517 95.0761 55.27 92.158C60.371 77.471 61.7303 62.2976 60.4671 46.8787C59.6265 36.6122 57.8253 26.5239 53.512 17.0665C52.657 15.1933 51.4466 13.4645 50.2265 11.7984C49.8038 11.2206 48.8528 11.0376 48.1467 10.6716C60.7505 30.6893 62.0954 78.1547 48.5742 101.206ZM99.8779 89.8514C99.7434 89.784 99.6041 89.6491 99.4696 89.6491C86.0685 89.6684 72.6674 89.6828 59.2615 89.7695C58.7475 89.7743 57.979 90.3233 57.7676 90.8096C57.076 92.3987 56.586 94.0745 55.952 95.8947C56.7301 96.0055 57.3354 96.1692 57.9358 96.1644C69.7374 96.0536 81.5438 96.0006 93.3454 95.7502C97.6203 95.6636 98.8356 94.3297 99.8779 89.8514ZM96.0112 13.0552C111.238 30.3329 113.879 77.9669 96.5924 99.8915C99.532 97.8931 101.593 95.105 103.24 92.0135C109.086 81.0536 111.041 69.1836 111.079 56.9332C111.122 44.5143 109.201 32.4806 103.307 21.357C101.554 18.0344 99.4023 14.9814 96.0112 13.0552ZM56.0865 61.8594C47.9642 61.5608 39.9379 61.2719 31.7532 60.9734C31.5562 63.5833 31.3785 65.9477 31.172 68.6347C37.2913 68.9958 43.1657 69.4244 49.0497 69.6748C56.466 69.9926 56.466 69.93 56.0865 61.8594ZM30.0816 35.8803C30.4563 38.5962 30.7589 40.7872 31.0903 43.1708C39.2751 42.7904 47.2629 42.4196 55.5437 42.0392C55.1162 39.2511 54.732 36.7519 54.2901 33.8674C46.2158 34.5368 38.3144 35.1965 30.0816 35.8803ZM53.7185 32.0809C53.5792 31.1852 53.4975 30.4726 53.3535 29.7743C52.3688 25.036 52.3544 24.9445 47.652 25.373C41.2444 25.9605 34.8513 26.7117 28.1507 27.4244C28.7271 29.8706 29.2122 31.9364 29.7214 34.0938C37.738 33.4196 45.5866 32.7599 53.7185 32.0809ZM30.0432 76.7775C38.2712 77.5624 46.2542 78.3185 54.3429 79.0889C54.7512 76.4453 55.0874 74.2494 55.4525 71.8754C47.1764 71.3987 39.1598 70.9364 30.9318 70.4597C30.634 72.5448 30.3602 74.4854 30.0432 76.7775ZM56.3987 53.0616C47.9738 53.0616 39.9571 53.0616 31.9405 53.0616C31.9405 55.349 31.9405 57.1499 31.9405 59.1676C40.1253 59.4661 48.1467 59.7599 56.3987 60.0633C56.3987 58.6957 56.3987 57.7422 56.3987 56.784C56.3987 55.5127 56.3987 54.2366 56.3987 53.0616ZM133.261 21.4244C144.591 44.7502 144.491 68.0135 133.385 91.2334C136.421 88.9172 138.381 85.4501 139.769 81.7133C145.557 66.1451 145.586 50.3602 141.032 34.5271C139.582 29.5095 137.372 24.7856 133.261 21.4244ZM31.734 50.9525C39.9379 50.9525 47.9498 50.9525 56.2402 50.9525C56.1057 48.9878 55.9328 47.418 55.9136 45.853C55.8944 44.312 55.3324 43.845 53.7329 43.9364C47.6039 44.3024 41.4654 44.4806 35.3316 44.7695C34.0203 44.8321 32.7138 45.0392 31.2728 45.1933C31.4458 47.365 31.5947 49.2575 31.734 50.9525ZM53.6176 80.861C45.7115 80.1002 37.738 79.3345 29.6157 78.5496C29.1642 80.5769 28.7415 82.4597 28.2612 84.6074C34.7264 85.4308 40.7977 86.3072 46.8979 86.9477C52.95 87.5833 52.9932 87.4533 53.7185 81.2751C53.7329 81.2029 53.6897 81.1258 53.6176 80.861ZM51.4802 23.052C50.7597 21.1836 50.2361 19.426 49.3908 17.8369C49.0641 17.2254 47.9594 16.6042 47.2821 16.6764C43.3146 17.0857 39.3567 17.6202 35.4181 18.2751C32.1566 18.8145 28.9289 19.5753 25.5377 20.2639C26.2967 22.2671 26.9451 23.9621 27.5935 25.6716C35.5718 24.7952 43.3819 23.938 51.4802 23.052ZM122.069 17.9525C134.519 43.479 134.529 68.7214 123.299 94.349C125.095 91.6523 127.088 88.9268 128.323 85.8931C133.491 73.1949 134.317 59.9188 132.91 46.4308C132.093 38.5769 130.523 30.8819 126.56 23.9284C125.335 21.7856 123.577 19.9364 122.069 17.9525ZM94.2388 14.7117C91.6595 11.4998 81.3229 8.63468 78.1479 10.0889C77.8789 10.2141 77.7156 10.556 77.461 10.739C75.2035 12.3811 71.4954 12.097 69.3579 10.1612C69.0889 9.92039 68.7047 9.64592 68.3829 9.65073C62.9023 9.80964 57.4218 10.0119 51.7876 10.2093C52.9836 13.1901 54.5591 14.2013 57.5755 14.0183C64.1128 13.6186 70.6884 13.6716 77.2449 13.8016C82.8311 13.9124 88.4029 14.3843 94.2388 14.7117ZM11.248 92.938C11.7812 92.5528 12.4873 92.2831 12.8139 91.7679C13.7938 90.2222 14.8217 88.662 15.4701 86.9669C18.2224 79.7679 19.0389 72.1884 19.5049 64.5705C20.2253 52.8209 19.7066 41.1387 16.7334 29.7021C15.9841 26.808 14.4518 24.097 13.0973 21.3955C12.5257 20.2543 11.4306 19.5127 9.80226 20.2591C13.1645 22.7486 14.178 26.3361 14.9946 29.9092C18.4481 45.0295 18.4625 60.3088 16.5028 75.6026C15.7487 81.5352 14.8841 87.5544 11.248 92.938ZM112.083 69.5592C117.463 69.227 122.477 68.9525 127.477 68.5673C128.006 68.5239 128.861 67.8883 128.928 67.4356C129.235 65.3457 129.317 63.2222 129.456 61.3875C123.712 61.3875 118.337 61.3875 112.88 61.3875C112.602 64.2767 112.362 66.723 112.083 69.5592ZM128.462 42.5929C128.116 40.9076 127.761 38.9525 127.276 37.036C127.165 36.6074 126.622 36.0103 126.229 35.9669C121.027 35.4035 115.815 34.9316 110.378 34.4116C110.844 36.9974 111.166 39.2029 111.684 41.3602C111.804 41.8562 112.597 42.5303 113.092 42.54C118.092 42.6267 123.097 42.5929 128.462 42.5929ZM8.88003 21.9926C8.17875 22.7005 7.38622 23.2206 7.00195 23.9525C6.31028 25.2912 5.7387 26.7262 5.33522 28.1852C1.38214 42.4726 1.13717 56.9958 2.75107 71.6154C3.42352 77.6828 4.4274 83.7021 7.17487 89.2543C7.55433 90.0199 8.21238 90.6507 8.86562 91.5031C2.03538 68.0954 2.01136 45.2414 8.88003 21.9926ZM128.635 70.3923C123.044 70.7053 117.962 70.9701 112.88 71.3265C112.419 71.3602 111.708 71.938 111.607 72.3763C111.122 74.4324 110.805 76.532 110.378 78.8867C115.868 78.3618 121.022 77.8995 126.161 77.3217C126.68 77.2639 127.415 76.609 127.549 76.1034C128.011 74.3457 128.251 72.5303 128.635 70.3923ZM51.754 89.418C43.9102 88.4019 36.5516 87.4148 29.1738 86.548C28.5686 86.4758 27.5839 87.0536 27.2765 87.6074C26.6329 88.7583 26.3255 90.1018 25.6915 91.9075C33.4583 93.0584 40.9322 94.1852 48.4157 95.235C48.8672 95.2976 49.6693 94.8305 49.8663 94.4067C50.582 92.8321 51.1103 91.1708 51.754 89.418ZM112.15 44.3217C112.395 46.7342 112.602 48.7711 112.837 51.1114C118.418 51.1114 123.841 51.1114 129.413 51.1114C129.255 49.5175 129.226 47.9862 128.904 46.5223C128.779 45.9541 128.025 45.1403 127.511 45.1066C122.52 44.7647 117.515 44.5721 112.15 44.3217ZM52.7242 102.627C63.6997 102.627 74.4254 102.627 85.1559 102.627C84.4546 102.444 83.7533 102.458 83.0472 102.444C74.2572 102.29 65.4625 102.155 56.6725 101.952C55.7263 101.928 54.7896 101.509 53.8434 101.274C53.8962 100.912 53.9491 100.551 54.0019 100.19C55.1211 100.19 56.2354 100.19 57.3546 100.19C67.9025 100.18 78.4505 100.156 88.9985 100.195C89.9591 100.2 90.9198 100.619 92.2407 100.936C92.7979 100.412 93.6768 99.6074 94.5318 98.7695C94.7864 98.5191 94.9641 98.1868 95.334 97.6716C94.258 97.6716 93.4943 97.662 92.7306 97.6716C81.4669 97.7968 70.1985 98.1628 58.9396 97.9124C55.6494 97.8401 53.9491 98.731 52.8827 101.548C52.8587 101.62 52.8635 101.707 52.7242 102.627ZM113.034 59.182C118.635 59.182 124.005 59.182 129.442 59.182C129.442 56.9958 129.442 55.2671 129.442 53.2206C123.918 53.2206 118.539 53.2206 113.034 53.2206C113.034 55.2238 113.034 57.2703 113.034 59.182ZM107.587 87.3666C113.428 86.5913 118.803 85.8979 124.163 85.1274C124.591 85.0648 125.138 84.564 125.297 84.1451C125.864 82.6234 126.286 81.0488 126.848 79.2093C121.171 79.7005 115.93 80.1291 110.7 80.6539C110.229 80.7021 109.609 81.304 109.417 81.7904C108.783 83.418 108.312 85.1082 107.587 87.3666ZM107.39 25.2864C108.216 27.8289 108.812 29.8128 109.537 31.7486C109.686 32.1483 110.296 32.5962 110.728 32.6347C115.882 33.1307 121.041 33.5544 126.589 34.0311C125.835 31.8835 125.21 30.0103 124.495 28.1756C124.351 27.8096 123.865 27.3811 123.491 27.3329C118.279 26.6347 113.063 25.999 107.39 25.2864ZM19.5337 95.5095C21.1476 95.6684 21.5366 95.4661 22.6654 93.4918C25.7683 88.06 27.3966 82.0793 28.2372 75.983C29.1642 69.2655 29.4668 62.4565 29.9183 55.6764C29.9712 54.9156 29.2219 54.1066 28.8424 53.3169C28.5302 54.0729 28.218 54.8289 27.9154 55.5849C27.8865 55.6523 27.9202 55.7438 27.9202 55.8209C27.5599 69.5689 26.4312 83.1531 19.5337 95.5095ZM47.5655 14.4132C46.5953 11.7888 44.9285 10.686 42.1811 11.5528C41.3549 11.8128 40.4471 11.808 39.5873 11.991C34.0731 13.1708 28.559 14.3747 23.0497 15.5689C22.9872 15.853 22.92 16.1371 22.8575 16.4164C23.775 17.0761 24.798 18.4196 25.5954 18.2944C32.9012 17.1531 40.1685 15.7567 47.5655 14.4132ZM123.928 87.2029C118.385 87.8193 113.068 88.3875 107.76 89.0231C107.289 89.0809 106.684 89.4372 106.458 89.8369C105.651 91.243 104.984 92.7262 103.999 94.7101C109.513 93.6604 114.422 92.6202 119.379 91.8305C122.079 91.4019 123.38 89.9091 123.928 87.2029ZM123.034 25.3056C121.593 21.3281 121.416 21.0921 117.938 20.4084C113.298 19.4982 108.639 18.6989 103.514 17.7647C104.571 19.7968 105.291 21.2896 106.132 22.7149C106.367 23.1146 106.948 23.4854 107.409 23.5432C112.539 24.1596 117.679 24.7085 123.034 25.3056ZM19.8795 16.4694C19.8507 16.6716 19.8219 16.8738 19.793 17.0713C21.1572 20.3795 23.0352 23.5721 23.7798 27.0151C25.384 34.4212 26.436 41.9477 27.6368 49.4405C27.9682 51.5014 27.8337 51.5255 29.8895 51.0103C29.3708 41.8899 28.266 32.8514 25.1103 24.1933C24.3465 22.1034 23.309 20.0905 22.1755 18.174C21.724 17.418 20.6624 17.0231 19.8795 16.4694ZM98.5618 101.587C104.792 100.132 110.416 99.0055 115.906 97.4212C117.631 96.9252 119.004 95.1965 120.537 94.0311C115.82 94.3345 111.473 95.4132 107.068 95.8225C103.37 96.1644 100.911 97.8835 98.5618 101.587ZM118.649 18.5881C118.711 18.3522 118.779 18.1162 118.841 17.8755C113.116 13.3345 105.844 13.9942 99.1574 12.4148C100.2 13.792 101.285 15.4485 102.669 15.7567C107.947 16.9364 113.317 17.678 118.649 18.5881ZM48.6847 97.2286C44.8613 96.6892 41.3789 96.251 37.911 95.6925C34.4382 95.1339 30.9798 94.4742 27.5215 93.8289C24.4618 93.2607 24.2024 93.41 23.1649 96.6796C23.4147 96.6796 23.8374 96.6941 23.8422 96.6796C24.0103 94.2527 25.5714 95.0761 26.8971 95.3457C32.5361 96.5111 38.1799 97.6427 43.8046 98.8658C44.8228 99.0873 45.7643 99.6844 46.9123 100.185C47.3494 99.4533 47.9162 98.5095 48.6847 97.2286ZM21.5366 60.3136C21.4069 62.8466 21.2917 65.1628 21.1668 67.6427C22.7374 67.7679 23.9671 67.8642 25.4849 67.9894C25.677 65.471 25.8548 63.1451 26.0469 60.6218C24.433 60.5111 23.1265 60.4196 21.5366 60.3136ZM139.721 60.3233C137.992 60.4437 136.685 60.54 135.264 60.6363C135.091 63.097 134.932 65.3602 134.774 67.609C138.145 68.1339 138.962 67.9364 139.188 66.357C139.457 64.4886 139.529 62.5913 139.721 60.3233ZM75.2707 9.86742C75.3092 9.66999 75.3476 9.47738 75.386 9.27995C75.1026 9.18845 74.8048 9.13548 74.5454 9.00547C73.9931 8.71654 73.4599 8.38909 72.9171 8.07609C73.4167 7.77754 73.8874 7.30081 74.4158 7.21414C76.4812 6.88669 76.8414 5.50948 76.4139 3.86261C75.9864 2.22056 74.6463 1.56085 73.0564 1.97497C71.3801 2.40836 70.5299 3.62184 70.9046 5.4228C71.2072 6.86743 71.6203 8.29279 72.0189 9.86742C73.0372 9.86742 74.1564 9.86742 75.2707 9.86742ZM21.0275 44.0616C22.5837 43.9124 23.8758 43.7872 25.3552 43.6475C25.019 41.2591 24.7308 39.1644 24.4042 36.8241C22.9248 37.0023 21.6615 37.1515 20.2926 37.3153C20.5424 39.6652 20.7633 41.6876 21.0275 44.0616ZM26.0373 51.5111C25.8548 49.373 25.6963 47.5191 25.5281 45.487C23.8998 45.67 22.6078 45.8145 21.162 45.9734C21.3109 48.0584 21.4454 49.8498 21.5847 51.7904C23.1217 51.6941 24.3754 51.617 26.0373 51.5111ZM139.404 51.8145C139.471 45.8241 139.755 45.0247 134.769 46.0408C134.913 47.784 135.052 49.5319 135.215 51.5207C136.58 51.617 137.891 51.7085 139.404 51.8145ZM138.607 69.1692C136.925 69.7567 134.942 69.853 134.481 70.739C133.669 72.3088 133.779 74.3602 133.501 76.2671C138.021 75.9685 138.021 75.9685 138.607 69.1692ZM18.5874 29.1387C19.0918 31.4453 19.5241 33.4244 19.9804 35.4998C21.431 35.2783 22.6414 35.0954 24.0343 34.8883C23.4627 32.5962 22.9728 30.6267 22.4541 28.5271C21.1236 28.7342 20.0476 28.9076 18.5874 29.1387ZM20.965 69.5303C20.7393 71.5962 20.5424 73.3682 20.331 75.3088C21.8104 75.4822 23.0304 75.6218 24.3513 75.7759C24.5627 74.5721 24.7548 73.6427 24.8749 72.7037C24.9902 71.7984 25.0238 70.8835 25.1055 69.8337C23.6357 69.7278 22.4637 69.6411 20.965 69.5303ZM135.379 58.4019C139.865 59.1146 140.624 58.2189 139.365 53.6202C138.112 53.6202 136.815 53.6202 135.379 53.6202C135.379 55.3153 135.379 56.8658 135.379 58.4019ZM136.685 34.999C135.739 29.365 135.091 28.6379 131.224 28.8787C133.121 35.7743 131.916 35.0857 136.685 34.999ZM23.9863 77.6058C22.4252 77.4421 21.2148 77.312 19.966 77.182C19.5529 79.1708 19.2022 80.861 18.8036 82.7631C20.1629 82.9894 21.2917 83.1772 22.5405 83.3795C22.8623 82.2767 23.1505 81.3763 23.3811 80.4661C23.5924 79.6331 23.7413 78.7856 23.9863 77.6058ZM21.8008 53.6106C21.1716 58.7872 21.5078 59.1531 25.8836 58.3923C25.8836 56.7791 25.8836 55.1612 25.8836 53.3843C24.4234 53.4661 23.1697 53.5336 21.8008 53.6106ZM131.541 83.7214C135.259 83.6058 136.325 82.3682 136.445 78.0199C132.593 78.0681 132.391 78.304 131.541 83.7214ZM134.058 39.3666C134.072 43.975 134.332 44.2254 138.587 43.6475C138.611 43.4356 138.683 43.2045 138.65 42.9926C138.386 41.4998 138.102 40.0071 137.886 38.8466C136.532 39.0295 135.297 39.1981 134.058 39.3666ZM18.1071 27.41C19.4328 27.1114 20.5856 26.8514 21.7576 26.5865C20.062 21.1788 19.9035 21.0825 16.4356 23.0905C16.9447 24.4051 17.4587 25.7342 18.1071 27.41ZM21.9929 85.5127C18.0302 84.1981 17.4875 84.6459 16.9639 89.5143C17.9822 89.7743 19.0245 90.044 20.2301 90.3522C20.869 88.6042 21.431 87.0632 21.9929 85.5127ZM18.9381 92.1291C16.6901 90.7374 14.9706 91.113 13.8946 93.6411C16.9831 95.471 17.7421 95.2446 18.9381 92.1291ZM128.577 23.1724C129.903 26.7551 130.503 27.1644 133.506 26.5962C132.939 23.9188 131.003 23.2494 128.577 23.1724ZM18.8324 19.9557C17.2185 17.2591 17.1945 17.2591 13.8322 19.036C14.9514 21.8722 16.815 20.8225 18.8324 19.9557ZM129.327 88.9653C131.594 88.7583 133.246 88.0745 133.717 85.6379C131.32 85.4405 129.749 86.2109 129.327 88.9653ZM125.796 93.5689C126.003 93.853 126.209 94.1323 126.421 94.4164C127.756 93.4292 129.091 92.4421 130.427 91.4549C130.21 91.1612 129.994 90.8674 129.778 90.5689C128.448 91.5753 127.122 92.5721 125.796 93.5689ZM125.561 18.1692C125.393 18.4581 125.22 18.7519 125.052 19.0408C126.464 19.8738 127.881 20.7021 129.293 21.5352C129.461 21.2462 129.629 20.9621 129.797 20.6732C128.385 19.8353 126.973 19.0023 125.561 18.1692Z" fill="black"/>
<path d="M11.0523 89.4751C4.17406 79.9695 3.78499 35.3932 10.9803 23.8507C11.744 25.9406 12.5798 27.6982 13.0361 29.557C16.3888 43.199 16.5809 57.0385 15.2264 70.9261C14.7989 75.2985 13.8863 79.6372 13.0025 83.947C12.6326 85.772 11.768 87.496 11.0523 89.4751Z" fill="white"/>
<path d="M60.5211 33.3275C68.8644 33.3275 76.8426 33.2456 84.816 33.3564C90.5656 33.4334 96.3103 33.7897 102.06 33.9487C103.376 33.9872 104.14 34.3291 104.356 35.7496C104.673 37.7865 105.143 39.8042 105.595 42.0771C103.165 42.0771 101.046 42.0867 98.928 42.0771C87.3426 42.0145 75.7523 41.8989 64.1668 41.9278C62.2407 41.9326 61.4626 41.4173 61.3857 39.4575C61.3281 37.6276 60.8958 35.8218 60.5211 33.3275Z" fill="white"/>
<path d="M106.594 62.0081C106.349 64.541 106.104 67.0498 105.826 69.9198C91.166 69.9198 76.7369 69.9198 62.039 69.9198C62.2215 67.3772 62.404 64.854 62.6057 62.0081C77.1596 62.0081 91.6655 62.0081 106.594 62.0081Z" fill="white"/>
<path d="M62.8028 52.7625C77.5152 52.7625 91.949 52.7625 106.541 52.7625C106.541 55.1605 106.541 57.2889 106.541 59.8122C92.045 59.8122 77.5056 59.8122 62.8028 59.8122C62.8028 57.4719 62.8028 55.122 62.8028 52.7625Z" fill="white"/>
<path d="M60.7085 79.2713C61.0159 77.0947 61.2128 75.1108 61.6259 73.1701C61.7268 72.6934 62.5241 72.0241 63.0092 72.0193C76.8426 71.8604 90.6808 71.7737 104.514 71.6822C104.735 71.6822 104.961 71.817 105.489 71.9952C105.062 74.0803 104.726 76.199 104.13 78.2408C103.986 78.7271 102.958 79.2472 102.329 79.2568C90.8153 79.4109 79.3019 79.5072 67.7837 79.565C65.4829 79.5746 63.1822 79.3772 60.7085 79.2713Z" fill="white"/>
<path d="M62.6009 50.7255C62.3943 48.313 62.2166 46.1846 62.0293 43.9888C76.7225 43.9888 91.2139 43.9888 105.902 43.9888C106.118 46.3965 106.301 48.4478 106.503 50.7255C91.8384 50.7255 77.3613 50.7255 62.6009 50.7255Z" fill="white"/>
<path d="M103.433 81.4141C102.79 83.2295 102.324 85.0209 101.493 86.6244C101.166 87.2504 100.028 87.7897 99.2546 87.7994C87.9141 87.992 76.5736 88.1075 65.2331 88.1942C63.1629 88.2087 61.0975 87.9968 58.6959 87.8716C59.2338 85.5843 59.7286 83.4655 60.2089 81.4141C74.6667 81.4141 88.9228 81.4141 103.433 81.4141Z" fill="white"/>
<path d="M55.1559 15.9101C67.9277 15.0722 80.3057 15.2504 92.6597 16.5939C96.8818 17.0514 98.4285 18.4864 99.4083 22.488C95.4264 22.488 91.3869 22.4639 87.3473 22.4928C78.0722 22.565 68.7923 22.6372 59.5172 22.7913C58.1675 22.8154 57.5046 22.5072 57.1348 21.1348C56.6785 19.4591 55.9148 17.8748 55.1559 15.9101Z" fill="white"/>
<path d="M103.261 31.5843C96.2573 31.5843 89.4655 31.5602 82.6785 31.5891C75.8771 31.6228 69.0757 31.6469 62.2791 31.8203C60.5739 31.8636 59.8294 31.3965 59.594 29.6967C59.3635 28.0594 58.8495 26.4655 58.3884 24.5682C63.11 24.3949 67.5723 24.0482 72.0249 24.106C80.8245 24.2119 89.6192 24.5875 98.414 24.732C100.335 24.7609 101.339 25.4206 101.796 27.2793C102.175 28.8251 102.809 30.2986 103.261 31.5843ZM84.6767 27.1782C84.6767 27.1541 84.6767 27.1349 84.6767 27.1108C85.6373 27.1108 86.5932 27.0771 87.5538 27.1156C91.3868 27.2649 95.2198 27.4768 99.0528 27.5634C99.61 27.5779 100.182 27.0386 100.744 26.7544C100.263 26.4511 99.7973 26.1188 99.2978 25.854C99.1009 25.7528 98.8271 25.7914 98.5869 25.7865C89.2398 25.6421 79.8878 25.4784 70.5407 25.4013C69.9547 25.3965 69.3639 26.0562 68.7731 26.4077C69.4407 26.6629 70.1036 27.13 70.7712 27.1397C75.4064 27.2119 80.0415 27.1782 84.6767 27.1782Z" fill="white"/>
<path d="M48.5754 101.205C62.1014 78.1589 60.7517 30.6886 48.1384 10.671C48.8492 11.0369 49.7955 11.2247 50.2182 11.7978C51.4382 13.4639 52.6534 15.1926 53.5036 17.0658C57.8169 26.5233 59.6182 36.6116 60.4587 46.878C61.722 62.3018 60.3627 77.4703 55.2616 92.1573C54.2481 95.0754 52.6534 97.8106 51.1452 100.531C50.7753 101.201 49.709 101.475 48.9597 101.933C48.8348 101.687 48.7051 101.446 48.5754 101.205Z" fill="white"/>
<path d="M99.8742 89.8556C98.8367 94.3291 97.6167 95.6629 93.3466 95.7544C81.545 96.0048 69.7434 96.053 57.9369 96.1686C57.3317 96.1734 56.7313 96.0096 55.9532 95.8989C56.5824 94.0787 57.0723 92.4029 57.7688 90.8138C57.9802 90.3275 58.7487 89.7737 59.2626 89.7737C72.6637 89.687 86.0648 89.6726 99.4708 89.6533C99.6052 89.6533 99.7397 89.7833 99.8742 89.8556ZM73.6964 93.6357C73.6964 93.7031 73.6916 93.7753 73.6916 93.8427C68.9076 93.5971 64.1235 93.3275 59.3347 93.1493C58.7679 93.13 58.1819 93.626 57.6055 93.8861C58.1387 94.2135 58.6622 94.8154 59.2002 94.8251C68.6962 95.0514 78.1923 95.2247 87.6884 95.3307C88.3128 95.3355 88.9468 94.7288 89.576 94.4061C88.9132 94.1509 88.2551 93.679 87.5875 93.6694C82.9619 93.6068 78.3316 93.6357 73.6964 93.6357Z" fill="white"/>
<path d="M96.0124 13.0546C99.4035 14.9807 101.551 18.0337 103.313 21.3515C109.202 32.4751 111.124 44.5136 111.085 56.9278C111.047 69.1782 109.087 81.0481 103.246 92.008C101.594 95.1043 99.538 97.8876 96.5984 99.886C113.885 77.9663 111.244 30.3323 96.0124 13.0546Z" fill="white"/>
<path d="M56.0877 61.8588C56.4672 69.9342 56.4672 69.9968 49.0557 69.679C43.1717 69.4286 37.2973 69 31.178 68.6389C31.3797 65.947 31.5622 63.5875 31.7592 60.9775C39.9391 61.2665 47.9654 61.5602 56.0877 61.8588Z" fill="white"/>
<path d="M30.0829 35.8796C38.3157 35.1958 46.2218 34.5409 54.2865 33.8668C54.7284 36.7512 55.1127 39.2456 55.5402 42.0385C47.2593 42.4237 39.2715 42.7945 31.0868 43.1701C30.7601 40.7865 30.4575 38.5907 30.0829 35.8796Z" fill="white"/>
<path d="M53.7198 32.0802C45.583 32.764 37.7393 33.4189 29.7179 34.0931C29.2087 31.9358 28.7236 29.8748 28.1472 27.4237C34.8477 26.7111 41.2409 25.9598 47.6484 25.3724C52.3508 24.939 52.3652 25.0353 53.3499 29.7737C53.4988 30.4719 53.5805 31.1846 53.7198 32.0802Z" fill="white"/>
<path d="M30.0445 76.7769C30.3663 74.4848 30.6401 72.5442 30.9283 70.4591C39.1563 70.9358 47.1729 71.3981 55.4489 71.8748C55.0839 74.2488 54.7476 76.4447 54.3394 79.0883C46.2507 78.3179 38.2725 77.557 30.0445 76.7769Z" fill="white"/>
<path d="M56.3999 53.061C56.3999 54.2359 56.3999 55.512 56.3999 56.7833C56.3999 57.7367 56.3999 58.695 56.3999 60.0626C48.1479 59.7592 40.1312 59.4655 31.9417 59.1669C31.9417 57.1493 31.9417 55.3483 31.9417 53.061C39.9631 53.061 47.9749 53.061 56.3999 53.061Z" fill="white"/>
<path d="M133.262 21.4238C137.378 24.7897 139.588 29.5088 141.033 34.5313C145.592 50.3644 145.558 66.1493 139.77 81.7175C138.382 85.4543 136.422 88.9165 133.387 91.2376C144.487 68.0129 144.588 44.7496 133.262 21.4238Z" fill="white"/>
<path d="M31.7352 50.9518C31.6007 49.2568 31.447 47.3644 31.2741 45.1926C32.715 45.0385 34.0215 44.8266 35.3328 44.7688C41.4666 44.4847 47.6052 44.3018 53.7341 43.9358C55.3336 43.8395 55.8956 44.3114 55.9148 45.8523C55.934 47.4221 56.1069 48.9871 56.2414 50.9518C47.951 50.9518 39.9392 50.9518 31.7352 50.9518Z" fill="white"/>
<path d="M53.6188 80.8603C53.6908 81.13 53.7341 81.2071 53.7244 81.2793C52.9992 87.4623 52.9559 87.5875 46.9038 86.9518C40.8037 86.3114 34.7323 85.4302 28.2672 84.6115C28.7475 82.4639 29.1702 80.5811 29.6217 78.5538C37.7392 79.3291 45.7174 80.0995 53.6188 80.8603Z" fill="white"/>
<path d="M51.4813 23.0514C43.383 23.9374 35.5729 24.7946 27.5995 25.671C26.951 23.9615 26.3026 22.2617 25.5437 20.2633C28.9348 19.5699 32.1578 18.8138 35.424 18.2745C39.3579 17.6244 43.3205 17.0899 47.288 16.6758C47.9653 16.6036 49.0701 17.2247 49.3967 17.8363C50.2372 19.4254 50.7608 21.183 51.4813 23.0514Z" fill="white"/>
<path d="M122.07 17.9518C123.583 19.9358 125.336 21.7801 126.561 23.9278C130.524 30.8764 132.09 38.5762 132.911 46.4302C134.319 59.9181 133.492 73.1942 128.324 85.8925C127.09 88.9262 125.101 91.6517 123.3 94.3483C134.53 68.7255 134.52 43.4831 122.07 17.9518Z" fill="white"/>
<path d="M94.2401 14.7111C88.4042 14.3836 82.8324 13.9117 77.2462 13.801C70.6897 13.671 64.1141 13.6132 57.5768 14.0177C54.5604 14.2006 52.9849 13.1942 51.7889 10.2087C57.4231 10.0112 62.9036 9.809 68.3842 9.65009C68.706 9.64046 69.0902 9.91493 69.3592 10.1605C71.4967 12.0963 75.2096 12.3804 77.4623 10.7384C77.7169 10.5554 77.8802 10.2135 78.1492 10.0883C81.3241 8.63404 91.6608 11.4992 94.2401 14.7111Z" fill="white"/>
<path d="M11.2493 92.9374C14.8854 87.5537 15.75 81.5345 16.5089 75.5971C18.4638 60.3033 18.4494 45.024 15.0007 29.9037C14.1841 26.3306 13.1706 22.7432 9.80835 20.2536C11.4367 19.5072 12.5318 20.2488 13.1034 21.39C14.4579 24.0915 15.9853 26.8025 16.7395 29.6966C19.7079 41.1332 20.2314 52.8154 19.5109 64.565C19.045 72.183 18.2285 79.7624 15.4762 86.9614C14.8278 88.6565 13.7951 90.2167 12.82 91.7624C12.4886 92.2777 11.7825 92.5521 11.2493 92.9374Z" fill="white"/>
<path d="M112.084 69.5586C112.363 66.7223 112.598 64.2761 112.881 61.3868C118.338 61.3868 123.713 61.3868 129.458 61.3868C129.318 63.2215 129.237 65.3451 128.929 67.435C128.862 67.8876 128.007 68.5233 127.479 68.5666C122.478 68.9567 117.464 69.2311 112.084 69.5586Z" fill="white"/>
<path d="M128.463 42.5923C123.098 42.5923 118.098 42.626 113.098 42.5393C112.603 42.5297 111.81 41.8555 111.69 41.3595C111.172 39.2022 110.85 36.9968 110.384 34.4109C115.816 34.931 121.028 35.4077 126.235 35.9663C126.628 36.0096 127.176 36.6019 127.282 37.0353C127.762 38.9566 128.113 40.9069 128.463 42.5923Z" fill="white"/>
<path d="M8.88125 21.9919C2.01258 45.2407 2.0366 68.0899 8.86684 91.5024C8.2136 90.6452 7.55555 90.0192 7.17609 89.2536C4.43343 83.7014 3.42474 77.687 2.75229 71.6147C1.13839 56.9952 1.38336 42.4719 5.33644 28.1846C5.73992 26.7303 6.3115 25.2953 7.00317 23.9518C7.38744 23.2199 8.17997 22.6998 8.88125 21.9919Z" fill="white"/>
<path d="M128.636 70.3917C128.252 72.5297 128.012 74.3451 127.551 76.1027C127.416 76.6132 126.681 77.2633 126.163 77.3211C121.023 77.8941 115.869 78.3564 110.379 78.8861C110.807 76.5265 111.119 74.4318 111.609 72.3756C111.714 71.9326 112.42 71.3547 112.882 71.3259C117.963 70.9695 123.05 70.7095 128.636 70.3917Z" fill="white"/>
<path d="M51.7551 89.4173C51.1115 91.1701 50.5831 92.8266 49.8675 94.4013C49.6753 94.825 48.8732 95.2921 48.4169 95.2295C40.9334 94.1846 33.4595 93.0578 25.6926 91.9021C26.3315 90.0963 26.6341 88.7576 27.2777 87.6019C27.5851 87.0481 28.5698 86.4703 29.175 86.5425C36.5528 87.4141 43.9114 88.4013 51.7551 89.4173ZM47.072 94.3483C47.4034 94.1894 47.9942 93.9149 48.585 93.6356C48.0134 93.2359 47.4898 92.5955 46.8654 92.4751C44.1276 91.9454 41.3705 91.512 38.6038 91.1701C38.0754 91.1027 37.4798 91.5939 36.9179 91.825C37.355 92.1765 37.744 92.7544 38.2291 92.8459C41.0439 93.3948 43.8826 93.8234 47.072 94.3483ZM34.6075 92.6388C35.2079 92.2151 35.6498 91.9021 36.0965 91.5842C35.4433 91.1749 34.8236 90.573 34.1175 90.4285C33.642 90.3322 33.0368 90.8812 32.4892 91.1412C33.1377 91.5987 33.7813 92.0513 34.6075 92.6388Z" fill="white"/>
<path d="M112.151 44.321C117.517 44.5714 122.517 44.7641 127.512 45.1011C128.026 45.1349 128.78 45.9535 128.905 46.5169C129.227 47.9808 129.261 49.5121 129.414 51.106C123.843 51.106 118.42 51.106 112.838 51.106C112.603 48.7705 112.396 46.7336 112.151 44.321Z" fill="white"/>
<path d="M52.7255 102.626C52.8648 101.706 52.86 101.62 52.8888 101.547C53.9551 98.7255 55.6555 97.8347 58.9457 97.9117C70.1998 98.1621 81.473 97.801 92.7367 97.671C93.5004 97.6613 94.2641 97.671 95.34 97.671C94.9702 98.1862 94.7925 98.5185 94.5379 98.7689C93.6829 99.6068 92.8039 100.411 92.2467 100.936C90.9258 100.623 89.9652 100.199 89.0045 100.194C78.4566 100.156 67.9086 100.18 57.3606 100.189C56.2415 100.189 55.1271 100.189 54.008 100.189C53.9551 100.551 53.9023 100.912 53.8495 101.273C54.7909 101.509 55.7275 101.928 56.6786 101.952C65.4686 102.154 74.2633 102.294 83.0533 102.443C83.7546 102.457 84.4607 102.443 85.1619 102.626C74.4266 102.626 63.6961 102.626 52.7255 102.626Z" fill="white"/>
<path d="M113.035 59.1814C113.035 57.2697 113.035 55.2231 113.035 53.2199C118.54 53.2199 123.919 53.2199 129.443 53.2199C129.443 55.2665 129.443 56.9952 129.443 59.1814C124.006 59.1814 118.636 59.1814 113.035 59.1814Z" fill="white"/>
<path d="M107.588 87.366C108.314 85.1076 108.784 83.4174 109.423 81.7897C109.615 81.3034 110.23 80.6966 110.706 80.6533C115.936 80.1284 121.172 79.6999 126.854 79.2087C126.287 81.0482 125.87 82.6228 125.303 84.1445C125.144 84.5682 124.597 85.069 124.169 85.1268C118.804 85.8925 113.429 86.5907 107.588 87.366Z" fill="white"/>
<path d="M107.391 25.2857C113.064 25.9936 118.28 26.634 123.492 27.3323C123.867 27.3804 124.352 27.809 124.496 28.1749C125.211 30.0096 125.831 31.8828 126.59 34.0305C121.042 33.5538 115.884 33.13 110.73 32.634C110.297 32.5907 109.687 32.1477 109.538 31.748C108.813 29.8122 108.218 27.8331 107.391 25.2857ZM110.658 26.3788C110.437 26.5425 109.889 26.947 109.341 27.3515C109.913 27.6645 110.461 28.1701 111.061 28.252C113.828 28.6276 116.604 28.9406 119.385 29.1477C119.937 29.191 120.528 28.6902 121.105 28.4398C120.576 28.0835 120.086 27.4863 119.52 27.4045C116.758 27.0096 113.977 26.7496 110.658 26.3788Z" fill="white"/>
<path d="M19.5349 95.5088C26.4276 83.1525 27.5611 69.573 27.9166 55.8251C27.9166 55.7432 27.883 55.6565 27.9118 55.5891C28.2144 54.8331 28.5266 54.0771 28.8388 53.321C29.2183 54.106 29.9676 54.9198 29.9147 55.6806C29.4632 62.4607 29.1606 69.2649 28.2336 75.9872C27.393 82.0835 25.7647 88.0642 22.6618 93.496C21.5378 95.4655 21.1488 95.6678 19.5349 95.5088Z" fill="white"/>
<path d="M47.5668 14.4125C40.1698 15.756 32.9025 17.1525 25.5967 18.2986C24.7993 18.4238 23.7762 17.0803 22.8588 16.4206C22.9213 16.1364 22.9885 15.8523 23.051 15.573C28.5651 14.3788 34.0744 13.1798 39.5886 11.9952C40.4436 11.8122 41.3514 11.817 42.1824 11.557C44.9298 10.6854 46.5918 11.7929 47.5668 14.4125Z" fill="white"/>
<path d="M123.929 87.2023C123.381 89.9085 122.08 91.4013 119.38 91.8299C114.428 92.6196 109.514 93.6597 104 94.7095C104.985 92.7255 105.653 91.2424 106.46 89.8363C106.69 89.4366 107.291 89.0755 107.761 89.0225C113.069 88.3869 118.386 87.8186 123.929 87.2023Z" fill="white"/>
<path d="M123.036 25.305C117.68 24.7127 112.54 24.1589 107.411 23.5425C106.949 23.4847 106.368 23.114 106.133 22.7143C105.288 21.2937 104.572 19.7961 103.515 17.764C108.64 18.6982 113.304 19.4976 117.939 20.4077C121.417 21.0867 121.595 21.3274 123.036 25.305Z" fill="white"/>
<path d="M19.8807 16.4687C20.6636 17.0273 21.7251 17.4173 22.1718 18.1733C23.3054 20.0899 24.3477 22.1027 25.1066 24.1926C28.2624 32.8507 29.3671 41.8892 29.8859 51.0096C27.8301 51.5249 27.9646 51.5056 27.6331 49.4398C26.4371 41.947 25.3804 34.4205 23.7761 27.0144C23.0316 23.5714 21.1535 20.3788 19.7894 17.0706C19.823 16.8684 19.8518 16.6661 19.8807 16.4687Z" fill="white"/>
<path d="M98.5629 101.586C100.912 97.8828 103.371 96.1637 107.069 95.8219C111.479 95.4174 115.826 94.3387 120.538 94.0305C119.006 95.1958 117.632 96.9246 115.907 97.4206C110.417 99.0048 104.793 100.132 98.5629 101.586Z" fill="white"/>
<path d="M118.65 18.5875C113.319 17.6822 107.948 16.9358 102.675 15.756C101.291 15.4478 100.206 13.7913 99.1633 12.4141C105.849 13.9936 113.122 13.3339 118.847 17.8748C118.78 18.1108 118.713 18.3467 118.65 18.5875Z" fill="white"/>
<path d="M48.6859 97.228C47.9174 98.5089 47.3506 99.4575 46.9135 100.185C45.7607 99.6838 44.8241 99.0867 43.8058 98.8652C38.1811 97.6421 32.5373 96.5105 26.8983 95.3451C25.5726 95.0706 24.0115 94.252 23.8434 96.679C23.8434 96.6934 23.4207 96.679 23.1661 96.679C24.2036 93.4093 24.4582 93.26 27.5227 93.8283C30.981 94.4735 34.4394 95.1332 37.9122 95.6918C41.3801 96.2504 44.8673 96.6886 48.6859 97.228Z" fill="white"/>
<path d="M21.5378 60.313C23.1277 60.4237 24.4342 60.5104 26.0481 60.6212C25.8559 63.1444 25.6782 65.4655 25.4861 67.9887C23.9682 67.8684 22.7338 67.7672 21.1679 67.642C21.2928 65.1621 21.4081 62.8411 21.5378 60.313Z" fill="white"/>
<path d="M139.722 60.3226C139.53 62.5907 139.458 64.488 139.189 66.3563C138.963 67.931 138.147 68.1332 134.775 67.6083C134.933 65.3596 135.092 63.0963 135.265 60.6356C136.686 60.5345 137.993 60.443 139.722 60.3226Z" fill="white"/>
<path d="M75.272 9.86678C74.1528 9.86678 73.0385 9.86678 72.0202 9.86678C71.6215 8.29214 71.2084 6.86678 70.9058 5.42216C70.5312 3.6212 71.3814 2.41253 73.0577 1.97433C74.6428 1.5602 75.9829 2.21991 76.4152 3.86197C76.8475 5.50884 76.4824 6.88604 74.417 7.21349C73.8838 7.29535 73.4179 7.7769 72.9184 8.07545C73.4612 8.38845 73.9895 8.72072 74.5467 9.00483C74.8061 9.13966 75.1039 9.19263 75.3873 9.2793C75.3488 9.47674 75.3104 9.67417 75.272 9.86678Z" fill="white"/>
<path d="M21.0286 44.061C20.7693 41.687 20.5483 39.6597 20.2889 37.3146C21.6579 37.1509 22.9259 37.0016 24.4005 36.8234C24.7272 39.1589 25.0202 41.2584 25.3516 43.6469C23.877 43.7865 22.5801 43.9117 21.0286 44.061Z" fill="white"/>
<path d="M26.0385 51.5104C24.3766 51.6163 23.1229 51.6934 21.5811 51.7897C21.4418 49.8443 21.3121 48.0529 21.1584 45.9727C22.6042 45.8138 23.8962 45.6693 25.5246 45.4863C25.6975 47.5184 25.856 49.3724 26.0385 51.5104Z" fill="white"/>
<path d="M139.405 51.8138C137.897 51.7078 136.586 51.6164 135.217 51.52C135.053 49.5361 134.914 47.7881 134.77 46.0401C139.751 45.0241 139.472 45.8234 139.405 51.8138Z" fill="white"/>
<path d="M138.608 69.1685C138.017 75.9631 138.017 75.9631 133.497 76.2664C133.781 74.3595 133.665 72.3082 134.477 70.7383C134.943 69.8523 136.927 69.756 138.608 69.1685Z" fill="white"/>
<path d="M18.5887 29.138C20.0536 28.9069 21.1296 28.7336 22.4505 28.5265C22.974 30.6212 23.464 32.5907 24.0308 34.8876C22.6378 35.0995 21.4322 35.2825 19.9768 35.4992C19.5253 33.4238 19.093 31.4446 18.5887 29.138Z" fill="white"/>
<path d="M20.9663 69.5297C22.4649 69.6404 23.6369 69.7223 25.1067 69.833C25.025 70.8828 24.9914 71.7977 24.8761 72.703C24.756 73.642 24.5639 74.5666 24.3526 75.7752C23.0317 75.6212 21.8116 75.4815 20.3322 75.3082C20.5484 73.3675 20.7405 71.5955 20.9663 69.5297Z" fill="white"/>
<path d="M135.38 58.4013C135.38 56.8652 135.38 55.3146 135.38 53.6196C136.811 53.6196 138.113 53.6196 139.367 53.6196C140.625 58.2183 139.866 59.1139 135.38 58.4013Z" fill="white"/>
<path d="M136.687 34.9984C131.917 35.0851 133.122 35.7785 131.225 28.878C135.092 28.6373 135.74 29.3644 136.687 34.9984Z" fill="white"/>
<path d="M23.9876 77.6051C23.7426 78.7801 23.5937 79.6276 23.3824 80.4607C23.1518 81.3756 22.8636 82.2713 22.5418 83.374C21.2929 83.1669 20.1642 82.9791 18.8048 82.7576C19.2035 80.8555 19.5541 79.1702 19.9672 77.1766C21.2113 77.3114 22.4265 77.4414 23.9876 77.6051Z" fill="white"/>
<path d="M21.802 53.6099C23.1758 53.5329 24.4246 53.4655 25.8848 53.3836C25.8848 55.1605 25.8848 56.7785 25.8848 58.3916C21.5042 59.1525 21.1728 58.7865 21.802 53.6099Z" fill="white"/>
<path d="M131.542 83.7207C132.392 78.3033 132.594 78.0674 136.446 78.0192C136.326 82.3675 135.26 83.6051 131.542 83.7207Z" fill="white"/>
<path d="M134.059 39.366C135.298 39.1974 136.533 39.0289 137.882 38.8459C138.099 40.0064 138.387 41.4944 138.646 42.992C138.685 43.2038 138.608 43.435 138.584 43.6469C134.333 44.2247 134.073 43.9743 134.059 39.366Z" fill="white"/>
<path d="M18.1083 27.4093C17.4599 25.7335 16.9459 24.4045 16.4368 23.0899C19.9047 21.0819 20.0632 21.1782 21.7588 26.5859C20.582 26.8507 19.434 27.1107 18.1083 27.4093Z" fill="white"/>
<path d="M21.9942 85.512C21.4274 87.0626 20.8654 88.6083 20.2314 90.3515C19.0209 90.0433 17.9786 89.7737 16.9651 89.5136C17.4887 84.6452 18.0363 84.1974 21.9942 85.512Z" fill="white"/>
<path d="M18.9393 92.1284C17.7433 95.244 16.9844 95.4703 13.8959 93.6404C14.9718 91.1124 16.6914 90.7367 18.9393 92.1284Z" fill="white"/>
<path d="M128.579 23.1718C131.004 23.2488 132.94 23.9181 133.507 26.5955C130.51 27.1637 129.904 26.7544 128.579 23.1718Z" fill="white"/>
<path d="M18.8336 19.955C16.8163 20.8218 14.9526 21.8716 13.8334 19.0353C17.1957 17.2584 17.2197 17.2584 18.8336 19.955Z" fill="white"/>
<path d="M129.328 88.9647C129.751 86.2103 131.316 85.4398 133.718 85.6372C133.247 88.0738 131.6 88.7576 129.328 88.9647Z" fill="white"/>
<path d="M125.798 93.5682C127.123 92.5714 128.449 91.5698 129.779 90.573C129.996 90.8667 130.212 91.1605 130.428 91.459C129.093 92.4462 127.757 93.4334 126.422 94.4205C126.211 94.1364 126.004 93.8523 125.798 93.5682Z" fill="white"/>
<path d="M125.562 18.1685C126.974 19.0016 128.387 19.8395 129.794 20.6725C129.626 20.9615 129.458 21.2456 129.29 21.5345C127.877 20.7014 126.46 19.8732 125.048 19.0401C125.221 18.7464 125.389 18.4574 125.562 18.1685Z" fill="white"/>
<path d="M84.6767 27.1782C80.0416 27.1782 75.4064 27.2071 70.7713 27.1445C70.0988 27.1348 69.436 26.6677 68.7731 26.4125C69.3639 26.061 69.9547 25.4013 70.5407 25.4061C79.8879 25.4831 89.2398 25.6469 98.587 25.7913C98.8272 25.7961 99.1009 25.7576 99.2979 25.8587C99.7974 26.1236 100.263 26.4559 100.744 26.7592C100.182 27.0433 99.6101 27.5827 99.0529 27.5682C95.2199 27.4815 91.3869 27.2697 87.5539 27.1204C86.598 27.0819 85.6374 27.1156 84.6767 27.1156C84.6767 27.1348 84.6767 27.1589 84.6767 27.1782Z" fill="black"/>
<path d="M73.6965 93.6356C78.3269 93.6356 82.962 93.6068 87.5924 93.6694C88.26 93.679 88.9181 94.1461 89.5809 94.4061C88.9517 94.7287 88.3177 95.3403 87.6933 95.3307C78.1972 95.2247 68.7011 95.0514 59.2051 94.825C58.6671 94.8106 58.1388 94.2135 57.6104 93.886C58.1868 93.626 58.7728 93.13 59.3396 93.1493C64.1284 93.3275 68.9125 93.5971 73.6965 93.8427C73.6965 93.7753 73.6965 93.7031 73.6965 93.6356Z" fill="black"/>
<path d="M47.072 94.3483C43.8779 93.8234 41.0439 93.3948 38.2292 92.8507C37.7441 92.7592 37.3502 92.1814 36.9179 91.8298C37.4799 91.5987 38.0803 91.1075 38.6039 91.1749C41.3705 91.5168 44.1276 91.9502 46.8655 92.4799C47.4899 92.6003 48.0135 93.2408 48.585 93.6404C47.9991 93.9149 47.4082 94.1942 47.072 94.3483Z" fill="black"/>
<path d="M34.6075 92.6388C33.7814 92.0562 33.1377 91.5987 32.4893 91.1412C33.0369 90.8812 33.6421 90.3323 34.1176 90.4286C34.8285 90.573 35.4433 91.175 36.0965 91.5843C35.6546 91.8973 35.2079 92.2151 34.6075 92.6388Z" fill="black"/>
<path d="M110.658 26.3788C113.977 26.7448 116.758 27.0048 119.52 27.4045C120.086 27.4863 120.576 28.0786 121.105 28.4398C120.528 28.6902 119.937 29.191 119.385 29.1476C116.604 28.9358 113.823 28.6276 111.061 28.252C110.461 28.1701 109.913 27.6645 109.341 27.3515C109.889 26.947 110.437 26.5425 110.658 26.3788Z" fill="black"/>
</g>
</g>
<defs>
<clipPath id="clip0">
<rect width="146" height="105" fill="white"/>
</clipPath>
</defs>
</svg>